<svg id="Layer_1" data-name="Layer 1" xmlns="http://www.w3.org/2000/svg" xmlns:xlink="http://www.w3.org/1999/xlink" viewBox="0 0 1280 1024"><defs><style>.cls-1{fill:url(#Blue_Sky);}.cls-2{fill:url(#Blue_Sky-2);}.cls-3{fill:url(#Blue_Sky-3);}.cls-4{fill:url(#linear-gradient);}.cls-5{fill:url(#linear-gradient-2);}.cls-6{fill:url(#linear-gradient-3);}.cls-7{fill:url(#linear-gradient-4);}.cls-8{fill:url(#linear-gradient-5);}.cls-9{fill:url(#linear-gradient-6);}</style><linearGradient id="Blue_Sky" x1="463.82" y1="871.47" x2="2153.1" y2="-857.7" gradientUnits="userSpaceOnUse"><stop offset="0" stop-color="#3ddeed"/><stop offset="1" stop-color="#3ddeed" stop-opacity="0"/></linearGradient><linearGradient id="Blue_Sky-2" x1="343.94" y1="754.35" x2="2033.22" y2="-974.82" xlink:href="#Blue_Sky"/><linearGradient id="Blue_Sky-3" x1="224.04" y1="637.23" x2="1913.32" y2="-1091.95" xlink:href="#Blue_Sky"/><linearGradient id="linear-gradient" x1="502.94" y1="858.54" x2="1392.04" y2="35.56" gradientUnits="userSpaceOnUse"><stop offset="0" stop-color="#e044ed"/><stop offset="1" stop-color="#3ddeed" stop-opacity="0"/></linearGradient><linearGradient id="linear-gradient-2" x1="393.44" y1="740.23" x2="1282.53" y2="-82.75" xlink:href="#linear-gradient"/><linearGradient id="linear-gradient-3" x1="283.92" y1="621.92" x2="1173.02" y2="-201.06" xlink:href="#linear-gradient"/><linearGradient id="linear-gradient-4" x1="364.68" y1="921.77" x2="1839.67" y2="-94.99" gradientUnits="userSpaceOnUse"><stop offset="0" stop-color="#ff233a"/><stop offset="1" stop-color="#3ddeed" stop-opacity="0"/></linearGradient><linearGradient id="linear-gradient-5" x1="285.57" y1="807" x2="1760.56" y2="-209.76" xlink:href="#linear-gradient-4"/><linearGradient id="linear-gradient-6" x1="206.46" y1="692.23" x2="1681.45" y2="-324.52" xlink:href="#linear-gradient-4"/></defs><title>NArtboard 1</title><path class="cls-1" d="M1056.58,254,844.57,710H587.48L716,433.56l28.22-60.68A205.55,205.55,0,0,1,930.62,254Z"/><polygon class="cls-2" points="716.01 433.55 587.48 710.01 587.46 710.01 504 530.47 632.53 253.99 716.01 433.55"/><path class="cls-3" d="M163.42,710l212-456H632.52L504,530.44l-28.22,60.68A205.55,205.55,0,0,1,289.38,710Z"/><path class="cls-4" d="M1086.58,284,874.57,740H617.48L746,463.56l28.22-60.68A205.55,205.55,0,0,1,960.62,284Z"/><polygon class="cls-5" points="746.01 463.55 617.48 740.01 617.46 740.01 534 560.47 662.53 283.99 746.01 463.55"/><path class="cls-6" d="M193.42,740l212-456H662.52L534,560.44l-28.22,60.68A205.55,205.55,0,0,1,319.38,740Z"/><path class="cls-7" d="M1116.58,314,904.57,770H647.48L776,493.56l28.22-60.68A205.55,205.55,0,0,1,990.62,314Z"/><polygon class="cls-8" points="776.01 493.55 647.48 770.01 647.46 770.01 564 590.47 692.53 313.99 776.01 493.55"/><path class="cls-9" d="M223.42,770l212-456H692.52L564,590.44l-28.22,60.68A205.55,205.55,0,0,1,349.38,770Z"/></svg>