<svg id="Layer_1" data-name="Layer 1" xmlns="http://www.w3.org/2000/svg" viewBox="0 0 1280 1024"><defs><style>.cls-1{fill:#3affee;stroke:#3affee;}.cls-1,.cls-10,.cls-11,.cls-12,.cls-13,.cls-16,.cls-2,.cls-3,.cls-4,.cls-5,.cls-6,.cls-7,.cls-8,.cls-9{stroke-miterlimit:10;}.cls-2{fill:#3e6bff;stroke:#3e6bff;}.cls-3{fill:#42ff52;stroke:#42ff52;}.cls-4{fill:#89ff3d;stroke:#89ff3d;}.cls-5{fill:#feff3e;stroke:#feff3e;}.cls-6{fill:#ffd740;stroke:#ffd740;}.cls-7{fill:#ffb140;stroke:#ffb140;}.cls-8{fill:#ff7337;stroke:#ff7337;}.cls-9{fill:#ff3f45;stroke:#ff3f45;}.cls-10{fill:#ff44b9;stroke:#ff44b9;}.cls-11{fill:#5340ff;stroke:#5340ff;}.cls-12{fill:#b548ff;stroke:#b548ff;}.cls-13,.cls-16{font-size:39.74px;fill:#fff;stroke:#fff;stroke-width:2px;}.cls-13{font-family:Constantia;}.cls-14{letter-spacing:-0.04em;}.cls-15{letter-spacing:-0.02em;}.cls-16,.cls-17{font-family:Kalam-Light, Kalam Light;font-weight:300;}.cls-17{font-size:55.22px;text-decoration:underline;}</style></defs><title>Artboard 1</title><path class="cls-1" d="M851.75,880.51a399.07,399.07,0,0,1-200.51,53.67V533.24Z"/><path class="cls-2" d="M998.51,733.75A402.8,402.8,0,0,1,851.75,880.51L651.24,533.24Z"/><path class="cls-3" d="M651.24,533.24V934.18a399.07,399.07,0,0,1-200.51-53.67Z"/><path class="cls-4" d="M651.24,533.24,450.73,880.51A402.8,402.8,0,0,1,304,733.75Z"/><path class="cls-5" d="M651.24,533.24,304,733.75A399.07,399.07,0,0,1,250.3,533.24Z"/><path class="cls-6" d="M651.24,533.24H250.3A399.07,399.07,0,0,1,304,332.73Z"/><path class="cls-7" d="M651.24,533.24,304,332.73A402.8,402.8,0,0,1,450.73,186Z"/><path class="cls-8" d="M651.24,132.3V533.24L450.73,186A399.07,399.07,0,0,1,651.24,132.3Z"/><path class="cls-9" d="M851.75,186,651.24,533.24V132.3A399.07,399.07,0,0,1,851.75,186Z"/><path class="cls-10" d="M998.51,332.73,651.24,533.24,851.75,186A402.8,402.8,0,0,1,998.51,332.73Z"/><path class="cls-11" d="M1052.18,533.24a399.07,399.07,0,0,1-53.67,200.51L651.24,533.24Z"/><path class="cls-12" d="M1052.18,533.24H651.24L998.51,332.73A399.07,399.07,0,0,1,1052.18,533.24Z"/><text class="cls-13" transform="translate(408.7 346.68)">N<tspan class="cls-14" x="29.77" y="0">O</tspan><tspan class="cls-15" x="60.17" y="0">V</tspan></text><text class="cls-16" transform="translate(527.46 245.55)">DEC</text><text class="cls-16" transform="translate(691.84 245.55)">JAN</text><text class="cls-16" transform="translate(840.49 332.73)">FEB</text><text class="cls-16" transform="translate(899.1 481.4)">MAR</text><text class="cls-16" transform="translate(331.63 469.96)">OCT</text><text class="cls-16" transform="translate(331.63 621.48)">SEP</text><text class="cls-16" transform="translate(408.7 746.31)">AUG</text><text class="cls-16" transform="translate(527.46 843.51)">JUL</text><text class="cls-16" transform="translate(691.84 843.51)">JUN</text><text class="cls-16" transform="translate(840.49 760.67)">MAY</text><text class="cls-16" transform="translate(899.1 621.48)">APR</text><text class="cls-17" transform="translate(79.4 122.43)">month chart</text></svg>